<?xml version="1.0" standalone="no"?>
<!DOCTYPE svg PUBLIC "-//W3C//DTD SVG 20010904//EN"
 "http://www.w3.org/TR/2001/REC-SVG-20010904/DTD/svg10.dtd">
<svg version="1.0" xmlns="http://www.w3.org/2000/svg"
 width="225.000000pt" height="225.000000pt" viewBox="0 0 225.000000 225.000000"
 preserveAspectRatio="xMidYMid meet">
<metadata>
Created by potrace 1.10, written by Peter Selinger 2001-2011
</metadata>
<g transform="translate(0.000000,225.000000) scale(0.100000,-0.100000)"
fill="#000000" stroke="none">
<path d="M967 2100 c-491 -89 -831 -516 -804 -1008 20 -359 235 -677 560 -827
233 -108 524 -112 757 -12 106 46 176 89 251 154 212 185 324 418 336 698 12
272 -80 514 -271 713 -132 138 -272 218 -466 268 -67 18 -296 26 -363 14z
m378 -50 c109 -29 252 -101 339 -170 208 -165 334 -405 352 -670 16 -231 -46
-440 -185 -627 -141 -192 -365 -327 -601 -364 -95 -15 -271 -5 -365 20 -293
79 -523 288 -636 581 -53 135 -73 320 -49 451 5 30 12 68 14 84 27 162 159
377 310 506 75 64 246 162 301 172 11 2 40 9 65 17 125 35 321 36 455 0z"/>
<path d="M1090 1906 c-101 -43 -173 -125 -200 -226 -7 -24 -15 -83 -18 -130
l-7 -85 -86 -3 c-120 -4 -120 -5 -121 -167 0 -159 0 -158 120 -165 l87 -5 5
-381 c5 -358 6 -383 24 -403 18 -20 29 -21 186 -21 146 0 169 2 182 18 14 14
17 75 23 405 l8 387 98 0 c94 0 98 1 118 27 20 24 21 34 15 147 -8 156 -8 156
-130 156 -108 0 -121 9 -103 73 14 52 41 67 120 67 51 0 72 5 90 19 23 18 24
24 22 146 -2 174 10 165 -207 165 -157 -1 -176 -3 -226 -24z m410 -141 l0
-135 -88 0 c-99 0 -125 -12 -148 -66 -8 -18 -14 -56 -14 -84 l0 -50 125 0 125
0 0 -135 0 -135 -125 0 -125 0 0 -405 0 -405 -176 0 -175 0 3 405 3 405 -112
0 -113 0 0 135 0 135 113 0 112 0 0 114 c1 107 3 117 33 179 38 77 93 128 166
156 43 17 77 20 224 20 l172 1 0 -135z"/>
</g>
</svg>
