<?xml version="1.0" standalone="no"?>
<!DOCTYPE svg PUBLIC "-//W3C//DTD SVG 20010904//EN"
 "http://www.w3.org/TR/2001/REC-SVG-20010904/DTD/svg10.dtd">
<svg version="1.0" xmlns="http://www.w3.org/2000/svg"
 width="225.000000pt" height="225.000000pt" viewBox="0 0 225.000000 225.000000"
 preserveAspectRatio="xMidYMid meet">
<metadata>
Created by potrace 1.10, written by Peter Selinger 2001-2011
</metadata>
<g transform="translate(0.000000,225.000000) scale(0.100000,-0.100000)"
fill="#000000" stroke="none">
<path d="M996 1924 c-252 -40 -476 -203 -589 -430 -68 -136 -88 -221 -88 -376
0 -221 79 -409 241 -569 213 -212 519 -286 807 -198 365 113 610 488 563 863
-23 189 -101 348 -234 482 -189 188 -437 269 -700 228z m367 -101 c106 -37
179 -80 258 -152 156 -140 241 -333 242 -546 1 -496 -469 -845 -953 -708 -214
61 -403 242 -481 462 -147 416 103 869 535 967 39 9 105 12 186 11 109 -3 136
-7 213 -34z m-964 -454 c-50 -94 -52 -363 -3 -476 8 -17 14 -44 13 -60 0 -17
-11 7 -31 67 -41 128 -48 265 -18 377 41 160 45 170 48 141 2 -15 -2 -37 -9
-49z"/>
<path d="M844 1481 c-25 -12 -50 -33 -65 -57 -24 -39 -24 -42 -24 -299 0 -251
1 -261 22 -295 12 -20 40 -46 61 -58 38 -21 50 -22 284 -22 233 0 246 1 288
23 33 16 51 34 68 67 21 42 22 55 22 285 0 230 -1 243 -22 285 -17 33 -35 51
-68 68 -42 21 -55 22 -285 22 -212 0 -245 -3 -281 -19z m531 -55 c18 -8 38
-23 44 -34 15 -27 15 -506 1 -533 -24 -44 -56 -49 -295 -49 -239 0 -271 5
-295 49 -14 27 -14 506 1 532 22 42 61 48 292 49 166 0 226 -3 252 -14z"/>
<path d="M1302 1358 c-20 -20 -14 -54 13 -68 22 -12 27 -11 45 5 34 31 20 75
-25 75 -12 0 -26 -5 -33 -12z"/>
<path d="M1060 1308 c-50 -17 -104 -76 -119 -130 -26 -93 16 -186 104 -228 92
-45 201 -6 253 90 44 83 14 192 -68 246 -43 29 -119 38 -170 22z m137 -73 c37
-24 56 -63 56 -111 0 -54 -24 -91 -77 -118 -96 -47 -205 46 -177 152 24 86
124 125 198 77z"/>
</g>
</svg>
