<?xml version="1.0" standalone="no"?>
<!DOCTYPE svg PUBLIC "-//W3C//DTD SVG 20010904//EN"
 "http://www.w3.org/TR/2001/REC-SVG-20010904/DTD/svg10.dtd">
<svg version="1.0" xmlns="http://www.w3.org/2000/svg"
 width="225.000000pt" height="225.000000pt" viewBox="0 0 225.000000 225.000000"
 preserveAspectRatio="xMidYMid meet">
<metadata>
Created by potrace 1.10, written by Peter Selinger 2001-2011
</metadata>
<g transform="translate(0.000000,225.000000) scale(0.100000,-0.100000)"
fill="#000000" stroke="none">
<path d="M875 2220 c-427 -97 -763 -440 -849 -867 -10 -45 -16 -106 -14 -135
3 -51 3 -52 16 -25 7 17 8 26 2 22 -7 -4 -8 3 -4 22 10 40 15 47 25 32 7 -11
9 -10 9 4 0 9 -4 17 -10 17 -15 0 -12 57 4 63 8 3 13 21 13 47 0 23 5 46 12
53 6 6 11 19 11 29 0 10 9 27 20 38 11 11 20 26 20 33 0 8 -4 7 -11 -3 -9 -12
-10 -12 -5 3 3 10 6 23 6 28 0 6 4 8 8 5 9 -5 21 14 42 72 11 29 21 37 43 33
5 -1 6 3 2 9 -3 6 -11 7 -17 4 -6 -4 -9 -1 -6 7 3 8 9 14 14 14 18 0 35 17 30
30 -2 7 2 21 9 32 8 10 15 14 15 9 0 -12 30 14 30 26 0 6 -7 5 -17 -2 -10 -7
-6 -1 9 13 15 14 24 28 21 31 -4 3 -1 6 5 6 5 0 13 -6 15 -12 3 -7 6 -3 6 9 1
12 12 30 26 41 13 11 21 23 17 27 -4 4 4 4 18 0 23 -7 24 -7 10 10 -9 11 -10
16 -2 11 7 -4 14 -1 18 8 3 8 11 13 18 10 12 -4 41 21 41 35 0 3 7 5 17 4 9
-1 22 5 30 15 12 15 11 16 -5 3 -9 -8 -20 -11 -23 -8 -4 3 10 14 29 23 20 10
33 22 30 27 -3 6 -1 7 5 3 17 -10 114 32 106 46 -4 5 7 3 23 -6 24 -12 30 -12
30 -1 0 8 -7 11 -16 7 -14 -5 -14 -3 -3 11 8 9 17 16 20 15 15 -2 73 15 78 23
3 5 17 6 32 3 22 -4 24 -3 12 6 -12 9 -8 10 18 5 21 -4 32 -3 32 5 0 8 11 10
33 6 23 -4 26 -4 12 3 -16 7 -12 10 27 16 26 4 51 4 57 0 6 -3 11 -1 11 5 0 6
4 9 9 6 5 -4 20 -2 33 3 43 18 -112 10 -197 -9z"/>
<path d="M1170 2230 c0 -5 17 -12 38 -15 20 -4 45 -9 55 -12 9 -2 17 0 17 6 0
6 7 11 16 11 8 0 12 -4 9 -10 -6 -10 -2 -12 46 -15 33 -2 230 -65 244 -77 6
-6 2 -6 -10 -2 -11 4 -17 4 -13 0 3 -4 12 -9 20 -10 7 -1 29 -9 48 -18 19 -8
48 -20 64 -27 16 -6 26 -14 23 -18 -4 -3 -13 0 -21 6 -9 8 -16 8 -20 2 -9 -13
4 -19 41 -17 25 1 29 -2 20 -12 -6 -7 -6 -12 -1 -11 20 3 35 -1 30 -10 -3 -5
2 -8 12 -7 9 0 21 -9 27 -22 5 -12 16 -20 22 -17 7 2 14 0 14 -5 1 -6 2 -16 3
-22 0 -7 11 -14 24 -16 22 -3 57 -54 45 -66 -4 -3 -1 -6 5 -6 6 0 14 5 17 10
3 6 1 10 -4 10 -6 0 -11 5 -11 11 0 8 4 8 14 0 8 -7 12 -21 8 -34 -3 -12 -1
-19 3 -15 12 11 35 -11 35 -33 0 -11 5 -18 12 -16 6 1 14 -7 16 -18 5 -25 37
-56 48 -47 4 4 4 2 0 -5 -7 -12 11 -52 28 -64 5 -4 6 -11 2 -17 -3 -6 1 -17 9
-25 17 -18 20 -31 5 -22 -6 4 1 -10 15 -30 28 -42 48 -103 38 -118 -4 -6 -1
-7 7 -2 9 5 10 2 6 -13 -4 -12 1 -33 13 -53 16 -25 18 -36 9 -47 -8 -9 -8 -16
-1 -20 6 -4 13 -27 17 -52 4 -25 11 -52 17 -60 18 -26 3 147 -21 235 -108 405
-446 725 -852 809 -86 18 -188 21 -188 6z"/>
<path d="M683 1813 c-28 -3 -52 -13 -71 -31 -16 -15 -35 -26 -42 -24 -7 3 -10
0 -6 -6 3 -6 2 -13 -4 -17 -5 -3 -14 -23 -19 -43 -15 -54 -21 -123 -12 -117
10 6 23 -23 16 -35 -3 -4 5 -10 16 -13 12 -3 18 -10 14 -16 -3 -6 0 -11 8 -11
8 0 18 -7 21 -16 3 -9 12 -14 19 -11 6 2 20 0 31 -5 24 -13 98 -19 91 -7 -3 4
8 6 25 4 17 -2 28 0 25 5 -6 10 54 72 64 66 4 -3 8 4 8 15 1 11 -3 17 -9 13
-6 -4 -9 -1 -6 7 3 8 10 13 15 12 6 -1 9 16 7 40 -4 63 -9 78 -27 89 -9 5 -17
14 -17 21 0 8 3 7 9 -2 7 -10 9 -7 8 11 -2 21 -5 24 -19 17 -11 -6 -19 -5 -24
3 -5 7 -2 9 7 4 8 -4 5 0 -5 8 -11 9 -28 16 -37 16 -10 0 -25 3 -35 7 -16 6
-16 7 2 14 20 8 17 8 -53 2z m86 -53 c40 -20 81 -85 81 -128 0 -57 -50 -124
-107 -143 -99 -32 -208 64 -189 166 13 65 83 124 149 125 15 0 45 -9 66 -20z"/>
<path d="M1359 1448 c0 -2 -2 -12 -4 -22 -5 -24 -25 -37 -46 -30 -11 3 -18 -3
-22 -16 -3 -13 -10 -18 -21 -14 -9 3 -13 10 -10 15 3 5 -3 6 -12 2 -13 -5 -15
-3 -9 7 5 9 4 11 -3 6 -7 -4 -12 -1 -12 8 0 9 -5 16 -11 16 -5 0 -8 -3 -6 -7
6 -10 -162 -7 -187 3 -14 5 -25 0 -43 -22 l-23 -29 0 -378 c0 -375 3 -408 34
-429 6 -4 59 -8 117 -8 93 0 110 3 133 21 26 21 35 49 15 49 -5 0 -7 5 -4 11
4 6 8 105 10 220 2 160 6 213 16 226 9 11 10 14 2 9 -26 -15 -12 12 15 30 27
18 31 20 53 23 5 0 8 5 5 9 -3 5 1 9 9 9 8 0 12 -5 8 -10 -3 -5 7 -6 26 -2 28
6 33 4 45 -26 7 -17 15 -27 17 -21 2 6 9 0 16 -14 11 -23 10 -24 -5 -12 -13
11 -14 11 -6 -2 13 -21 22 -430 9 -430 -5 0 -4 -4 4 -9 9 -6 10 -11 2 -15 -6
-4 -1 -18 16 -36 l26 -30 117 0 c102 0 119 2 134 19 15 17 17 48 14 330 -2
252 -6 313 -17 320 -7 5 -11 13 -7 19 3 6 2 13 -4 17 -5 3 -10 11 -10 16 0 6
5 7 12 3 7 -4 8 -3 4 5 -4 6 -12 9 -17 6 -5 -4 -9 1 -9 9 0 9 -5 16 -11 16 -5
0 -7 5 -3 12 4 6 3 8 -3 5 -6 -4 -17 1 -24 10 -12 15 -12 16 4 10 11 -4 16 -3
12 3 -3 6 -11 10 -16 10 -6 0 -30 14 -54 30 -29 20 -57 30 -82 31 -30 0 -34 2
-18 9 14 6 2 8 -37 6 -31 -1 -60 -5 -64 -9 -4 -4 -14 -7 -23 -7 -14 0 -14 2
-1 11 11 7 6 8 -19 4 -23 -5 -31 -4 -27 4 4 6 5 11 2 11 -3 0 -6 -1 -7 -2z
m203 -59 c59 -15 119 -68 153 -134 l30 -59 5 -310 5 -311 -127 3 -128 3 0 247
c0 215 -2 252 -18 282 -23 48 -74 73 -131 65 -60 -7 -89 -28 -112 -81 -18 -40
-19 -64 -17 -281 l3 -238 -122 3 -123 3 0 400 0 399 120 0 120 0 1 -57 c0 -32
3 -51 6 -43 9 25 46 61 89 86 71 42 145 49 246 23z"/>
<path d="M810 1415 c0 -6 -48 -10 -124 -10 -95 0 -122 -3 -119 -12 4 -10 40
-13 134 -13 l129 0 0 -400 0 -400 -131 0 c-100 0 -130 -3 -127 -12 3 -9 38
-14 114 -16 89 -3 115 0 142 14 21 11 31 23 27 32 -3 8 3 21 12 28 15 11 15
13 3 14 -13 0 -14 46 -10 370 4 271 2 370 -6 370 -6 0 -19 10 -27 23 -9 12
-16 18 -17 12z"/>
<path d="M548 1008 c-3 -398 -2 -431 16 -425 17 6 16 789 -1 794 -10 4 -13
-79 -15 -369z"/>
<path d="M10 1025 c0 -78 26 -194 66 -300 94 -243 250 -428 479 -568 135 -82
359 -151 474 -145 l56 3 -60 14 c-33 8 -66 14 -74 12 -7 -1 -10 2 -7 7 3 5
-12 8 -35 6 -30 -2 -38 0 -30 9 7 9 2 12 -16 14 -20 1 -23 -1 -12 -9 11 -8 10
-9 -4 -4 -10 3 -21 6 -23 6 -3 0 -3 3 -1 8 3 4 -8 7 -23 8 -16 1 -47 11 -69
22 -22 12 -49 19 -58 16 -15 -5 -16 -4 -3 6 13 10 11 11 -8 7 -12 -3 -20 -2
-17 3 7 11 -24 22 -38 13 -7 -3 -9 -3 -5 2 10 11 -41 37 -56 28 -6 -4 -5 1 3
10 12 15 12 17 -4 11 -13 -5 -16 -4 -11 4 5 8 1 10 -10 5 -11 -4 -15 -2 -11 4
4 6 -7 16 -23 23 -17 7 -30 17 -30 22 0 6 -7 7 -16 4 -12 -4 -14 -1 -9 14 5
16 2 20 -17 21 -13 1 -26 1 -31 0 -10 -1 -4 22 8 32 6 5 1 7 -10 5 -25 -4 -55
20 -55 45 0 13 -5 17 -15 13 -8 -3 -14 -2 -14 2 4 22 -3 33 -15 29 -13 -5 -27
13 -31 38 0 6 -6 9 -12 8 -6 -1 -9 6 -6 16 3 12 -8 33 -32 59 -20 23 -41 57
-46 77 -6 19 -14 33 -20 30 -5 -4 -9 -5 -9 -3 0 2 -18 54 -39 117 -30 85 -39
125 -36 159 3 31 1 42 -5 32 -7 -11 -10 -2 -10 30 0 25 -3 55 -6 68 -11 40
-24 23 -24 -33z"/>
<path d="M2227 1060 c-17 -56 -37 -162 -31 -171 3 -5 0 -9 -6 -9 -6 0 -9 -8
-6 -18 4 -11 -6 -45 -21 -78 -14 -32 -25 -65 -24 -72 1 -8 -4 -21 -12 -30 -18
-21 -57 -104 -57 -121 0 -7 -5 -9 -12 -5 -8 5 -9 2 -5 -9 4 -11 1 -17 -8 -17
-8 0 -15 -5 -15 -11 0 -8 -6 -7 -17 2 -15 13 -15 12 -6 -6 9 -15 7 -25 -10
-49 -24 -34 -182 -193 -217 -219 -14 -10 -19 -15 -11 -11 9 5 12 3 7 -5 -4 -6
-12 -9 -17 -6 -10 7 -69 -25 -69 -36 0 -4 -14 -10 -30 -14 -18 -4 -27 -11 -23
-18 4 -6 0 -8 -10 -4 -9 3 -19 1 -23 -5 -5 -7 -2 -8 6 -3 8 5 11 4 6 -3 -4 -6
-13 -9 -20 -6 -7 3 -21 -2 -30 -11 -9 -9 -23 -14 -31 -11 -8 3 -15 2 -15 -2 0
-11 -68 -35 -79 -28 -5 3 -12 -1 -15 -10 -4 -11 -13 -14 -31 -10 -32 8 -77 -3
-68 -17 3 -5 1 -7 -5 -3 -10 6 -129 -18 -140 -28 -11 -12 101 -5 174 10 311
64 595 272 751 552 78 139 137 344 131 453 -2 43 -5 49 -11 29z"/>
</g>
</svg>
