<?xml version="1.0" standalone="no"?>
<!DOCTYPE svg PUBLIC "-//W3C//DTD SVG 20010904//EN"
 "http://www.w3.org/TR/2001/REC-SVG-20010904/DTD/svg10.dtd">
<svg version="1.0" xmlns="http://www.w3.org/2000/svg"
 width="259.000000pt" height="194.000000pt" viewBox="0 0 259.000000 194.000000"
 preserveAspectRatio="xMidYMid meet">
<metadata>
Created by potrace 1.10, written by Peter Selinger 2001-2011
</metadata>
<g transform="translate(0.000000,194.000000) scale(0.100000,-0.100000)"
fill="#000000" stroke="none">
<path d="M1178 1850 c-269 -43 -484 -178 -626 -395 -190 -290 -190 -680 0
-970 167 -254 436 -399 743 -399 497 0 885 388 885 884 0 481 -366 862 -850
884 -52 3 -121 1 -152 -4z m305 -56 c246 -50 466 -225 577 -459 61 -129 75
-197 75 -370 -1 -176 -13 -233 -80 -370 -107 -218 -311 -383 -550 -446 -113
-30 -308 -30 -420 0 -284 75 -501 278 -598 559 -27 76 -31 104 -35 227 -5 172
15 273 83 410 103 209 303 376 525 439 125 36 279 39 423 10z"/>
<path d="M809 1380 l-30 -30 3 -319 3 -319 25 -27 c29 -32 274 -155 306 -155
12 0 32 12 43 26 18 23 21 41 21 130 0 82 3 104 14 104 8 0 130 -56 271 -125
142 -69 268 -125 281 -125 51 0 54 18 54 361 0 294 -1 318 -19 340 -10 13 -86
57 -169 98 -146 71 -152 73 -176 58 -13 -9 -59 -73 -101 -142 -42 -69 -81
-125 -86 -125 -5 0 -21 19 -35 43 -45 71 -65 87 -198 154 -182 91 -172 89
-207 53z m961 -484 c0 -198 -4 -327 -10 -331 -5 -3 -147 63 -315 147 l-305
154 0 -148 c0 -82 -4 -149 -10 -153 -10 -6 -264 117 -292 143 -16 14 -18 43
-18 339 0 252 3 323 13 323 6 -1 79 -36 162 -78 l149 -77 51 -82 c45 -74 51
-81 63 -65 7 9 54 83 103 164 l90 147 160 -79 159 -80 0 -324z"/>
<path d="M1707 1122 c-15 -26 -48 -78 -72 -117 -45 -72 -102 -166 -144 -237
-36 -61 -7 -36 36 30 120 187 219 360 211 367 -2 2 -16 -17 -31 -43z"/>
<path d="M1144 1015 c0 -71 1 -99 3 -62 2 37 2 96 0 130 -2 34 -3 4 -3 -68z"/>
<path d="M1282 992 c99 -163 142 -231 146 -228 9 10 -146 266 -161 266 -4 0 2
-17 15 -38z"/>
</g>
</svg>
